<mxfile host="app.diagrams.net" modified="2022-01-12T07:03:06.053Z" agent="5.0 (Macintosh; Intel Mac OS X 10_15_7) AppleWebKit/537.36 (KHTML, like Gecko) Chrome/96.0.4664.110 Safari/537.36" etag="thu-UPxvS_EFLsuSZeSU" version="16.2.4" type="github">
  <diagram id="gZEiyUl1PnuuJUVFzTEY" name="Page-1">
    <mxGraphModel dx="1298" dy="737" grid="1" gridSize="10" guides="1" tooltips="1" connect="1" arrows="1" fold="1" page="1" pageScale="1" pageWidth="827" pageHeight="1169" background="#283618" math="0" shadow="0">
      <root>
        <mxCell id="0" />
        <mxCell id="1" parent="0" />
        <mxCell id="kvun2XRcZpIJdbgNZkjA-1" value="" style="rhombus;whiteSpace=wrap;html=1;fillColor=#BC6C25;strokeColor=#DDA15E;fontColor=#FEFAE0;" parent="1" vertex="1">
          <mxGeometry x="200" y="190" width="80" height="80" as="geometry" />
        </mxCell>
      </root>
    </mxGraphModel>
  </diagram>
</mxfile>
